<svg xmlns="http://www.w3.org/2000/svg" xmlns:xlink="http://www.w3.org/1999/xlink" version="1.1" width="421.701" height="421.7" style="" xml:space="preserve"><rect id="backgroundrect" width="100%" height="100%" x="0" y="0" fill="none" stroke="none"/>
















<g class="currentLayer" style=""><title>Layer 1</title><g id="svg_1" class="" fill="#ffffff" fill-opacity="1">
	<path d="M321.883,142.636c0,7.429-6.023,13.458-13.455,13.458H113.28c-7.436,0-13.452-6.03-13.452-13.458   c0-7.431,6.016-13.461,13.452-13.461h195.148C315.86,129.175,321.883,135.206,321.883,142.636z M308.428,209.473H113.28   c-7.436,0-13.452,6.026-13.452,13.457c0,7.432,6.016,13.461,13.452,13.461h195.148c7.432,0,13.455-6.029,13.455-13.461   C321.883,215.499,315.86,209.473,308.428,209.473z M421.701,177.162c0,60.269-37.971,116.816-99.429,148.586   c-45.39,91.065-149.114,93.741-160.977,93.741h-0.007l-1.651-0.027c-5.878-0.173-10.961-4.159-12.55-9.814   c-1.583-5.649,0.654-11.678,5.568-14.897c19.321-12.628,34.757-27.009,46.122-42.911C88.112,346.63,0,270.273,0,177.165   C0,80.691,94.583,2.211,210.851,2.211C327.115,2.217,421.701,80.691,421.701,177.162z M394.782,177.162   c0-81.617-82.518-148.04-183.925-148.04c-101.426,0-183.935,66.422-183.935,148.04c0,81.631,82.514,148.05,183.935,148.05   c3.633,0,7.25-0.108,10.846-0.284c0.21-0.011,0.429-0.011,0.646-0.011c4.486,0,8.712,2.245,11.201,6.009   c2.632,3.939,2.978,8.974,0.938,13.252c-7.225,15.114-17.058,29.188-29.399,42.115c31.87-8.55,72.817-28.72,94.843-76.173   c1.297-2.791,3.524-5.056,6.283-6.419C361.67,276.53,394.782,229.212,394.782,177.162z" id="svg_2" fill="#ffffff" fill-opacity="1"/>
</g><g id="svg_3">
</g><g id="svg_4">
</g><g id="svg_5">
</g><g id="svg_6">
</g><g id="svg_7">
</g><g id="svg_8">
</g><g id="svg_9">
</g><g id="svg_10">
</g><g id="svg_11">
</g><g id="svg_12">
</g><g id="svg_13">
</g><g id="svg_14">
</g><g id="svg_15">
</g><g id="svg_16">
</g><g id="svg_17">
</g></g></svg>