<svg xmlns="http://www.w3.org/2000/svg" xmlns:xlink="http://www.w3.org/1999/xlink" version="1.1" width="311.5409851074219" height="311.5409851074219" style="" xml:space="preserve"><rect id="backgroundrect" width="100%" height="100%" x="0" y="0" fill="none" stroke="none"/>
















<g class="currentLayer" style=""><title>Layer 1</title><g id="svg_1" class="selected" fill="#e84141" fill-opacity="1">
	<g id="svg_2" fill="#e84141" fill-opacity="1">
		<path d="M155.771,26.331C69.74,26.331,0,96.071,0,182.102c0,37.488,13.25,71.883,35.314,98.761    c3.404-27.256,30.627-50.308,68.8-61.225c13.946,12.994,31.96,20.878,51.656,20.878c19.233,0,36.894-7.487,50.698-19.936    c38.503,11.871,65.141,36.27,66.017,64.63c24.284-27.472,39.056-63.555,39.056-103.108    C311.541,96.071,241.801,26.331,155.771,26.331z M155.771,222.069c-9.944,0-19.314-2.732-27.634-7.464    c-20.05-11.409-33.855-34.756-33.855-61.711c0-38.143,27.583-69.176,61.489-69.176c33.909,0,61.489,31.033,61.489,69.176    c0,27.369-14.237,51.004-34.786,62.215C174.379,219.523,165.346,222.069,155.771,222.069z" id="svg_3" fill="#e84141" fill-opacity="1"/>
	</g>
</g><g id="svg_4">
</g><g id="svg_5">
</g><g id="svg_6">
</g><g id="svg_7">
</g><g id="svg_8">
</g><g id="svg_9">
</g><g id="svg_10">
</g><g id="svg_11">
</g><g id="svg_12">
</g><g id="svg_13">
</g><g id="svg_14">
</g><g id="svg_15">
</g><g id="svg_16">
</g><g id="svg_17">
</g><g id="svg_18">
</g></g></svg>