<?xml version="1.0" encoding="UTF-8"?>
<svg enable-background="new 0 0 400 400" version="1.1" viewBox="0 0 400 400" xml:space="preserve" xmlns="http://www.w3.org/2000/svg"><rect width="100%" height="100%" fill="none"/>
<g class="currentLayer" style=""><title>Layer 1</title><g class="selected">
	<path d="m62.313 91.49c54.279-9.4406 108.54-18.88 163.4-28.423v39.788c11.677-4.8502 22.592-4.5274 32.93 1.7185 10.35 6.2517 15.294 15.821 16.383 27.887 12.533-19.124 32.527-20.719 45.969-13.831 14.212 7.283 21.375 23.412 17.109 38.593-4.1727 14.855-19.24 25.573-34.585 24.436-14.676-1.0846-30.568-10.867-32.46-33.033-13.248 17.192-22.261 20.197-44.945 14.843v11.563c1.7443 0.10468 3.2595 0.2743 4.7738 0.27721 11.708 0.021324 23.426 0.30919 35.122-0.073664 10.926-0.35669 17.307 4.6263 16.159 14.477-0.038654 0.33924 0.21356 0.7095 0.46482 1.4752 1.5065 0.12116 3.1368 0.35766 4.768 0.3625 12.618 0.031986 25.236-0.019385 37.855 0.030047 10.503 0.042648 13.786 3.3032 13.79 13.511 0.0019327 11.093 0.020293 22.188-0.0057981 33.281-0.049284 20.637-14.863 35.413-35.946 35.767-7.7927 0.13182-15.589 0.022293-23.367 0.022293-0.53246 0.68333-0.98858 1.1408-1.2882 1.6797-7.2419 13.058-18.689 18.921-33.587 18.909-6.0938-0.0029078-12.187 0-18.909 0v40.426c-55.017-8.8106-109.27-17.5-163.63-26.206v-217.48zm163.74 192.39c7.067 0 13.686-0.30241 20.267 0.063971 13.491 0.75021 25.286-10.261 25.125-24.824-0.25318-22.796-0.072477-45.598-0.090837-68.397-0.0019327-1.3512-0.14978-2.7013-0.23193-4.1058h-45.07v97.262zm56.263-20.854c9.0335 0 17.659 0.70078 26.118-0.17156 11.516-1.1835 19.76-11.807 19.884-24.278 0.1092-10.952 0.030923-21.904 0.01063-32.856-0.0028991-0.97605-0.20777-1.9511-0.32759-3.0028h-45.684v60.308zm-130.03-97.909c10.632-0.58059 20.539-1.1214 30.543-1.6681v-15.044c-25.076 1.5712-49.829 3.122-74.575 4.6718v13.295h26.783v83.315c6.0136 0.28787 11.362 0.54472 17.248 0.82678v-85.397zm131.1-17.214c-0.15462 11.939 9.3118 21.746 21.149 21.902 12.867 0.17059 22.941-9.1518 23.046-21.328 0.10147-12.034-9.5331-21.762-21.675-21.879-12.73-0.1231-22.36 8.986-22.519 21.304m-57.402 0.67558c8.6769 8.2649 22.424 7.8636 30.87-0.77929 8.5213-8.7185 8.1241-22.591-0.88518-30.872-8.5416-7.851-22.294-7.8132-29.985 0.17931v31.472z" fill="#555BA4"/>
</g></g></svg>
