<svg xmlns="http://www.w3.org/2000/svg" xmlns:xlink="http://www.w3.org/1999/xlink" version="1.1" width="291.82080983486276" height="284.9479776178705" enable-background="new 0 0 400 400" xml:space="preserve"><rect id="backgroundrect" width="100%" height="100%" x="0" y="0" fill="none" stroke="none" class="" style=""/>

<g class="currentLayer" style=""><title>Layer 1</title><g id="svg_1" class="">
	<path fill="#555BA4" d="M2.4500168428421034,32.994495941162114 c56.169,-9.74 112.316,-19.479 169.086,-29.324 v41.05 c12.084,-5.004 23.379,-4.671 34.077,1.7730000000000001 c10.71,6.45 15.827,16.323 16.953,28.771 c12.969,-19.73 33.659,-21.376 47.57,-14.27 c14.707,7.514 22.119,24.154 17.705,39.817 c-4.318,15.326 -19.91,26.384 -35.789,25.211 c-15.187,-1.119 -31.632,-11.212 -33.59,-34.081 c-13.709,17.737000000000002 -23.036,20.838 -46.51,15.314 v11.93 c1.8050000000000002,0.10800000000000003 3.373,0.2830000000000001 4.94,0.2860000000000001 c12.116,0.022000000000000013 24.242,0.3190000000000001 36.345,-0.07600000000000003 c11.306000000000001,-0.3680000000000001 17.91,4.773 16.722,14.936 c-0.040000000000000015,0.3500000000000001 0.22100000000000006,0.7320000000000002 0.4810000000000001,1.522 c1.5590000000000002,0.125 3.246,0.3690000000000001 4.934,0.3740000000000001 c13.057,0.033000000000000015 26.115,-0.020000000000000007 39.173,0.031000000000000014 c10.869,0.04400000000000002 14.266,3.408 14.27,13.939 c0.002000000000000001,11.445 0.021000000000000008,22.892 -0.006000000000000004,34.336 c-0.05100000000000002,21.291 -15.38,36.536 -37.198,36.901 c-8.064,0.136 -16.132,0.023000000000000013 -24.181,0.023000000000000013 c-0.551,0.7050000000000002 -1.023,1.177 -1.3330000000000002,1.733 c-7.494,13.472 -19.34,19.521 -34.756,19.509 c-6.306,-0.003000000000000002 -12.611,0 -19.567,0 v41.708 c-56.932,-9.09 -113.074,-18.055 -169.326,-27.037 V32.994495941162114 zM171.8860168428421,231.48749594116214 c7.313,0 14.163,-0.3120000000000001 20.973,0.06600000000000003 c13.961,0.774 26.166,-10.586 26,-25.611 c-0.262,-23.519 -0.07500000000000002,-47.044 -0.09400000000000006,-70.566 c-0.002000000000000001,-1.3940000000000001 -0.15500000000000005,-2.787 -0.24000000000000005,-4.236 h-46.639 V231.48749594116214 zM230.10801684284212,209.9724959411621 c9.348,0 18.274,0.7230000000000002 27.027,-0.17700000000000005 c11.917,-1.221 20.448,-12.181 20.576,-25.048 c0.11300000000000003,-11.299 0.032000000000000015,-22.599 0.011000000000000006,-33.898 c-0.003000000000000002,-1.007 -0.21500000000000005,-2.013 -0.3390000000000002,-3.098 h-47.275 V209.9724959411621 zM95.55401684284209,108.95849594116211 c11.002,-0.5990000000000002 21.254,-1.157 31.606,-1.721 v-15.521 c-25.949,1.621 -51.564,3.221 -77.171,4.82 v13.717 h27.716 v85.957 c6.223,0.2970000000000001 11.758000000000001,0.562 17.849,0.8530000000000002 V108.95849594116211 zM231.22101684284212,91.19849594116212 c-0.16000000000000006,12.318 9.636,22.436 21.885,22.597 c13.315,0.17600000000000005 23.74,-9.442 23.848,-22.004 c0.10500000000000002,-12.416 -9.865,-22.452 -22.43,-22.573 C241.3510168428421,69.09149594116211 231.38601684284208,78.48949594116212 231.22101684284212,91.19849594116212 M171.8200168428421,91.8954959411621 c8.979,8.527 23.205,8.113 31.945,-0.804 c8.818,-8.995 8.407,-23.307 -0.916,-31.851 c-8.839,-8.1 -23.07,-8.061 -31.029,0.18500000000000005 V91.8954959411621 z" id="svg_2"/>
</g></g></svg>