<?xml version="1.0" encoding="UTF-8"?>
<svg enable-background="new 0 0 400 400" version="1.1" viewBox="0 0 293.21 305.39" xml:space="preserve" xmlns="http://www.w3.org/2000/svg"><rect width="100%" height="100%" fill="none"/>
<g class="currentLayer" style=""><title>Layer 1</title><g class="">
	<path d="m5.4605 33.508c56.169-9.74 112.32-19.479 169.09-29.324v41.05c12.084-5.004 23.379-4.671 34.077 1.773 10.71 6.45 15.827 16.323 16.953 28.771 12.969-19.73 33.659-21.376 47.57-14.27 14.707 7.514 22.119 24.154 17.705 39.817-4.318 15.326-19.91 26.384-35.789 25.211-15.187-1.119-31.632-11.212-33.59-34.081-13.709 17.737-23.036 20.838-46.51 15.314v11.93c1.805 0.108 3.373 0.283 4.94 0.286 12.116 0.022 24.242 0.319 36.345-0.076 11.306-0.368 17.91 4.773 16.722 14.936-0.04 0.35 0.221 0.732 0.481 1.522 1.559 0.125 3.246 0.369 4.934 0.374 13.057 0.033 26.115-0.02 39.173 0.031 10.869 0.044 14.266 3.408 14.27 13.939 2e-3 11.445 0.021 22.892-6e-3 34.336-0.051 21.291-15.38 36.536-37.198 36.901-8.064 0.136-16.132 0.023-24.181 0.023-0.551 0.705-1.023 1.177-1.333 1.733-7.494 13.472-19.34 19.521-34.756 19.509-6.306-3e-3 -12.611 0-19.567 0v41.708c-56.932-9.09-113.07-18.055-169.33-27.037v-224.38zm169.44 198.49c7.313 0 14.163-0.312 20.973 0.066 13.961 0.774 26.166-10.586 26-25.611-0.262-23.519-0.075-47.044-0.094-70.566-2e-3 -1.394-0.155-2.787-0.24-4.236h-46.639v100.35zm58.222-21.515c9.348 0 18.274 0.723 27.027-0.177 11.917-1.221 20.448-12.181 20.576-25.048 0.113-11.299 0.032-22.599 0.011-33.898-3e-3 -1.007-0.215-2.013-0.339-3.098h-47.275v62.221zm-134.55-101.01c11.002-0.599 21.254-1.157 31.606-1.721v-15.521c-25.949 1.621-51.564 3.221-77.171 4.82v13.717h27.716v85.957c6.223 0.297 11.758 0.562 17.849 0.853v-88.105zm135.67-17.76c-0.16 12.318 9.636 22.436 21.885 22.597 13.315 0.176 23.74-9.442 23.848-22.004 0.105-12.416-9.865-22.452-22.43-22.573-13.173-0.127-23.138 9.271-23.303 21.98m-59.401 0.697c8.979 8.527 23.205 8.113 31.945-0.804 8.818-8.995 8.407-23.307-0.916-31.851-8.839-8.1-23.07-8.061-31.029 0.185v32.47z" fill="#555BA4"/>
</g></g></svg>
